<svg width="100%" xmlns="http://www.w3.org/2000/svg" style="position:absolute">

	<path
		d="M0,370.6c-0.5,35,29.5,68,60,82.8c40.8,19.7,82.2,6.8,99.3,1.4c76-23.8,83.3-81.4,130.3-79.9c43.9,1.4,53.2,52.1,102.2,52.5
		c38.6,0.3,67.2-30.9,79.9-44.6c44.4-48.3,49.5-116.9,33.1-165.5c-6-17.7-11.5-34.1-27.4-45.3c-30.9-22-62.5,2.7-96.2-16.2
		c-27.9-15.7-17.7-39-44.8-68c-44.9-47.9-125.5-40.2-155.5-37.3C145.6,53.7,101.3,58,66.5,92c-43.9,42.9-46.3,107.1-46.8,120.2
		c-1.7,45.2,14.1,62.2,1.4,103.6C12.1,345.6,0.3,348.8,0,370.6z"
	/>
  </svg>
  