<?xml version="1.0" encoding="utf-8"?>
<!-- Generator: Adobe Illustrator 22.0.0, SVG Export Plug-In . SVG Version: 6.00 Build 0)  -->
<svg version="1.1" id="Calque_1" xmlns="http://www.w3.org/2000/svg" xmlns:xlink="http://www.w3.org/1999/xlink" x="0px" y="0px"
	 viewBox="0 0 550 92" style="enable-background:new 0 0 550 92;" xml:space="preserve">
<style type="text/css">
	.st0{display:none;fill:#828282;}
	.st1{fill:#383838;}
	.st2{fill:#7F7A7A;}
</style>
<path class="st0" d="M468.8-369h-360c-39.8,0-72,32.2-72,72V-9h504v-288C540.8-336.8,508.5-369,468.8-369z"/>
<path class="st1" d="M9,10c-5,0-9,4-9,9v54c0,5,4,9,9,9h40V10H9z M12,46v21c0,1.7-1.3,3-3,3s-3-1.3-3-3V46V25c0-1.7,1.3-3,3-3
	s3,1.3,3,3V46z"/>
<path class="st2" d="M550,0L27.1,0c1,25,21.7,45,46.9,45h458l18-23V0z"/>
<path class="st2" d="M549,92L27,92c0,0,0-25.2,0-35.1s9.1-9.9,9.1-9.9H531l18,23V92z"/>
</svg>
